<?xml version="1.0" encoding="UTF-8"?>
<!DOCTYPE svg PUBLIC "-//W3C//DTD SVG 1.1//EN" "http://www.w3.org/Graphics/SVG/1.1/DTD/svg11.dtd">
<!-- Creator: CorelDRAW -->
<svg xmlns="http://www.w3.org/2000/svg" xml:space="preserve" width="512px" height="512px" version="1.1" style="shape-rendering:geometricPrecision; text-rendering:geometricPrecision; image-rendering:optimizeQuality; fill-rule:evenodd; clip-rule:evenodd"
viewBox="0 0 512 512"
 xmlns:xlink="http://www.w3.org/1999/xlink">
 <defs>
  <style type="text/css">
   <![CDATA[
    .fil0 {fill:black}
   ]]>
  </style>
 </defs>
 <g id="Layer_x0020_1">
  <metadata id="CorelCorpID_0Corel-Layer"/>
  <g id="_303831720">
   <g>
    <g>
     <g id="_178557256">
      <path class="fil0" d="M349 230l-186 0c0,0 -1,0 -1,0 -21,-6 -35,-23 -36,-43 0,-18 10,-33 27,-40 3,-14 14,-35 40,-35 1,0 3,0 4,0 10,-24 32,-39 59,-39 27,0 49,15 59,39 1,0 3,0 4,0 26,0 37,21 40,35 17,7 27,22 27,40 -1,20 -15,37 -36,43 0,0 -1,0 -1,0zm-185 -10l184 0c16,-5 27,-18 28,-34 0,-11 -6,-25 -23,-31 -2,0 -3,-2 -3,-4 0,-1 -5,-29 -31,-29 -2,0 -4,0 -7,1 -2,0 -5,-1 -5,-4 -8,-21 -27,-35 -51,-35 -24,0 -43,14 -51,35 0,3 -3,4 -5,4 -3,-1 -5,-1 -7,-1 -26,0 -31,28 -31,29 0,2 -1,4 -3,4 -17,6 -23,20 -23,31 1,16 12,29 28,34z"/>
     </g>
     <g id="_178557040">
      <path class="fil0" d="M475 230l-186 0c-2,0 -5,-2 -5,-5 0,-3 3,-5 5,-5l185 0c17,-5 27,-18 28,-34 0,-11 -6,-25 -23,-31 -2,0 -3,-2 -3,-4 0,0 -3,-16 -14,-24 -7,-5 -14,-6 -24,-4 -2,0 -4,-1 -5,-4 -7,-21 -27,-35 -51,-35 -23,0 -43,14 -50,35 -1,3 -4,4 -7,3 -3,-1 -4,-3 -3,-6 8,-26 32,-43 60,-43 0,0 0,0 0,0 27,0 49,15 59,39 10,-1 19,1 27,7 11,8 16,22 17,28 17,7 27,22 27,40 -1,20 -15,37 -36,43 0,0 -1,0 -1,0z"/>
     </g>
     <g id="_178556992">
      <path class="fil0" d="M223 230l-186 0c0,0 -1,0 -1,0 -21,-6 -35,-23 -36,-43 0,-18 10,-33 27,-40 1,-6 6,-20 17,-28 8,-6 17,-8 27,-7 10,-24 32,-39 59,-39 28,0 52,17 60,43 1,3 0,5 -3,6 -3,1 -6,0 -7,-3 -7,-21 -27,-35 -50,-35 -24,0 -44,14 -51,35 -1,3 -3,4 -5,4 -10,-2 -17,-1 -24,4 -11,8 -14,24 -14,24 0,2 -1,4 -3,4 -17,6 -23,20 -23,31 1,16 11,29 28,34l185 0c2,0 5,2 5,5 0,3 -3,5 -5,5z"/>
     </g>
    </g>
    <g>
     <g>
      <g id="_303883952">
       <path class="fil0" d="M58 306c-10,0 -19,-9 -19,-19 0,-11 9,-19 19,-19 11,0 19,8 19,19 0,10 -8,19 -19,19zm0 -28c-4,0 -8,4 -8,9 0,5 4,9 8,9 5,0 9,-4 9,-9 0,-5 -4,-9 -9,-9z"/>
      </g>
      <g id="_303884792">
       <path class="fil0" d="M58 278c-2,0 -5,-2 -5,-5l0 -17c0,-3 3,-5 5,-5 3,0 6,2 6,5l0 17c0,3 -3,5 -6,5z"/>
      </g>
      <g id="_303884168">
       <path class="fil0" d="M68 282c-1,0 -2,0 -3,-1 -2,-2 -2,-6 0,-8l12 -12c2,-2 5,-2 7,0 2,2 2,6 0,8l-12 12c-1,1 -2,1 -4,1z"/>
      </g>
      <g id="_303884264">
       <path class="fil0" d="M89 292l-17 0c-2,0 -5,-2 -5,-5 0,-3 3,-5 5,-5l17 0c3,0 5,2 5,5 0,3 -2,5 -5,5z"/>
      </g>
      <g id="_303884192">
       <path class="fil0" d="M80 314c-1,0 -2,-1 -3,-2l-12 -12c-2,-2 -2,-5 0,-7 2,-2 5,-2 7,0l12 12c2,2 2,5 0,7 -1,1 -2,2 -4,2z"/>
      </g>
      <g id="_303883880">
       <path class="fil0" d="M58 323c-2,0 -5,-2 -5,-5l0 -17c0,-3 3,-5 5,-5 3,0 6,2 6,5l0 17c0,3 -3,5 -6,5z"/>
      </g>
      <g id="_303884288">
       <path class="fil0" d="M37 314c-2,0 -3,-1 -4,-2 -2,-2 -2,-5 0,-7l12 -12c2,-2 5,-2 7,0 2,2 2,5 0,7l-12 12c-1,1 -2,2 -3,2z"/>
      </g>
      <g id="_303884528">
       <path class="fil0" d="M45 292l-17 0c-3,0 -6,-2 -6,-5 0,-3 3,-5 6,-5l17 0c2,0 5,2 5,5 0,3 -3,5 -5,5z"/>
      </g>
      <g id="_303884024">
       <path class="fil0" d="M49 282c-2,0 -3,0 -4,-1l-12 -12c-2,-2 -2,-6 0,-8 2,-2 5,-2 7,0l12 12c2,2 2,6 0,8 -1,1 -2,1 -3,1z"/>
      </g>
     </g>
     <g>
      <g id="_303883976">
       <path class="fil0" d="M157 319c-10,0 -19,-9 -19,-19 0,-11 9,-19 19,-19 11,0 19,8 19,19 0,10 -8,19 -19,19zm0 -28c-5,0 -9,4 -9,9 0,4 4,8 9,8 5,0 9,-4 9,-8 0,-5 -4,-9 -9,-9z"/>
      </g>
      <g id="_303883832">
       <path class="fil0" d="M157 291c-3,0 -5,-2 -5,-5l0 -17c0,-3 2,-5 5,-5 3,0 5,2 5,5l0 17c0,3 -2,5 -5,5z"/>
      </g>
      <g id="_303884456">
       <path class="fil0" d="M167 295c-1,0 -3,-1 -4,-2 -2,-2 -2,-5 0,-7l12 -12c2,-2 6,-2 8,0 2,2 2,5 0,7l-12 12c-1,1 -3,2 -4,2z"/>
      </g>
      <g id="_303884696">
       <path class="fil0" d="M188 305l-17 0c-3,0 -5,-3 -5,-5 0,-3 2,-6 5,-6l17 0c3,0 5,3 5,6 0,2 -2,5 -5,5z"/>
      </g>
      <g id="_178559600">
       <path class="fil0" d="M179 327c-1,0 -3,-1 -4,-2l-12 -12c-2,-2 -2,-5 0,-7 2,-2 6,-2 8,0l12 12c2,2 2,5 0,7 -1,1 -3,2 -4,2z"/>
      </g>
      <g id="_304021672">
       <path class="fil0" d="M157 336c-3,0 -5,-3 -5,-5l0 -17c0,-3 2,-6 5,-6 3,0 5,3 5,6l0 17c0,2 -2,5 -5,5z"/>
      </g>
      <g id="_304022368">
       <path class="fil0" d="M135 327c-1,0 -2,-1 -3,-2 -2,-2 -2,-5 0,-7l12 -12c2,-2 5,-2 7,0 2,2 2,5 0,7l-12 12c-1,1 -2,2 -4,2z"/>
      </g>
      <g id="_304021432">
       <path class="fil0" d="M143 305l-17 0c-3,0 -5,-3 -5,-5 0,-3 2,-6 5,-6l17 0c3,0 5,3 5,6 0,2 -2,5 -5,5z"/>
      </g>
      <g id="_304021720">
       <path class="fil0" d="M147 295c-1,0 -2,-1 -3,-2l-12 -12c-2,-2 -2,-5 0,-7 2,-2 5,-2 7,0l12 12c2,2 2,5 0,7 -1,1 -2,2 -4,2z"/>
      </g>
     </g>
     <g>
      <g id="_304022080">
       <path class="fil0" d="M256 306c-10,0 -19,-9 -19,-19 0,-11 9,-19 19,-19 10,0 19,8 19,19 0,10 -9,19 -19,19zm0 -28c-5,0 -9,4 -9,9 0,5 4,9 9,9 5,0 9,-4 9,-9 0,-5 -4,-9 -9,-9z"/>
      </g>
      <g id="_304021456">
       <path class="fil0" d="M256 278c-3,0 -5,-2 -5,-5l0 -17c0,-3 2,-5 5,-5 3,0 5,2 5,5l0 17c0,3 -2,5 -5,5z"/>
      </g>
      <g id="_304022008">
       <path class="fil0" d="M266 282c-1,0 -3,0 -4,-1 -2,-2 -2,-6 0,-8l12 -12c2,-2 5,-2 7,0 2,2 2,6 0,8l-12 12c-1,1 -2,1 -3,1z"/>
      </g>
      <g id="_304021504">
       <path class="fil0" d="M287 292l-17 0c-3,0 -5,-2 -5,-5 0,-3 2,-5 5,-5l17 0c3,0 5,2 5,5 0,3 -2,5 -5,5z"/>
      </g>
      <g id="_304022944">
       <path class="fil0" d="M278 314c-1,0 -3,-1 -4,-2l-12 -12c-2,-2 -2,-5 0,-7 2,-2 5,-2 7,0l12 12c2,2 2,5 0,7 -1,1 -2,2 -3,2z"/>
      </g>
      <g id="_304021240">
       <path class="fil0" d="M256 323c-3,0 -5,-2 -5,-5l0 -17c0,-3 2,-5 5,-5 3,0 5,2 5,5l0 17c0,3 -2,5 -5,5z"/>
      </g>
      <g id="_304021384">
       <path class="fil0" d="M234 314c-1,0 -2,-1 -3,-2 -2,-2 -2,-5 0,-7l12 -12c2,-2 5,-2 7,0 2,2 2,5 0,7l-12 12c-1,1 -3,2 -4,2z"/>
      </g>
      <g id="_304521400">
       <path class="fil0" d="M242 292l-17 0c-3,0 -5,-2 -5,-5 0,-3 2,-5 5,-5l17 0c3,0 5,2 5,5 0,3 -2,5 -5,5z"/>
      </g>
      <g id="_304520920">
       <path class="fil0" d="M246 282c-1,0 -2,0 -3,-1l-12 -12c-2,-2 -2,-6 0,-8 2,-2 5,-2 7,0l12 12c2,2 2,6 0,8 -1,1 -3,1 -4,1z"/>
      </g>
     </g>
     <g>
      <g id="_304520800">
       <path class="fil0" d="M355 319c-11,0 -19,-9 -19,-19 0,-11 8,-19 19,-19 10,0 19,8 19,19 0,10 -9,19 -19,19zm0 -28c-5,0 -9,4 -9,9 0,4 4,8 9,8 5,0 9,-4 9,-8 0,-5 -4,-9 -9,-9z"/>
      </g>
      <g id="_304521448">
       <path class="fil0" d="M355 291c-3,0 -5,-2 -5,-5l0 -17c0,-3 2,-5 5,-5 3,0 5,2 5,5l0 17c0,3 -2,5 -5,5z"/>
      </g>
      <g id="_304521328">
       <path class="fil0" d="M365 295c-2,0 -3,-1 -4,-2 -2,-2 -2,-5 0,-7l12 -12c2,-2 5,-2 7,0 2,2 2,5 0,7l-12 12c-1,1 -2,2 -3,2z"/>
      </g>
      <g id="_304520632">
       <path class="fil0" d="M386 305l-17 0c-3,0 -5,-3 -5,-5 0,-3 2,-6 5,-6l17 0c3,0 5,3 5,6 0,2 -2,5 -5,5z"/>
      </g>
      <g id="_304521088">
       <path class="fil0" d="M377 327c-2,0 -3,-1 -4,-2l-12 -12c-2,-2 -2,-5 0,-7 2,-2 5,-2 7,0l12 12c2,2 2,5 0,7 -1,1 -2,2 -3,2z"/>
      </g>
      <g id="_304521976">
       <path class="fil0" d="M355 336c-3,0 -5,-3 -5,-5l0 -17c0,-3 2,-6 5,-6 3,0 5,3 5,6l0 17c0,2 -2,5 -5,5z"/>
      </g>
      <g id="_304521592">
       <path class="fil0" d="M333 327c-1,0 -3,-1 -4,-2 -2,-2 -2,-5 0,-7l12 -12c2,-2 6,-2 8,0 2,2 2,5 0,7l-12 12c-1,1 -3,2 -4,2z"/>
      </g>
      <g id="_304521568">
       <path class="fil0" d="M341 305l-17 0c-3,0 -5,-3 -5,-5 0,-3 2,-6 5,-6l17 0c3,0 5,3 5,6 0,2 -2,5 -5,5z"/>
      </g>
      <g id="_304521520">
       <path class="fil0" d="M345 295c-1,0 -3,-1 -4,-2l-12 -12c-2,-2 -2,-5 0,-7 2,-2 6,-2 8,0l12 12c2,2 2,5 0,7 -1,1 -3,2 -4,2z"/>
      </g>
     </g>
     <g>
      <g id="_304521496">
       <path class="fil0" d="M454 306c-11,0 -19,-9 -19,-19 0,-11 8,-19 19,-19 10,0 19,8 19,19 0,10 -9,19 -19,19zm0 -28c-5,0 -9,4 -9,9 0,5 4,9 9,9 4,0 8,-4 8,-9 0,-5 -4,-9 -8,-9z"/>
      </g>
      <g id="_304521136">
       <path class="fil0" d="M454 278c-3,0 -6,-2 -6,-5l0 -17c0,-3 3,-5 6,-5 2,0 5,2 5,5l0 17c0,3 -3,5 -5,5z"/>
      </g>
      <g id="_304520944">
       <path class="fil0" d="M463 282c-1,0 -2,0 -3,-1 -2,-2 -2,-6 0,-8l12 -12c2,-2 5,-2 7,0 2,2 2,6 0,8l-12 12c-1,1 -2,1 -4,1z"/>
      </g>
      <g id="_304521736">
       <path class="fil0" d="M484 292l-17 0c-2,0 -5,-2 -5,-5 0,-3 3,-5 5,-5l17 0c3,0 6,2 6,5 0,3 -3,5 -6,5z"/>
      </g>
      <g id="_304521760">
       <path class="fil0" d="M475 314c-1,0 -2,-1 -3,-2l-12 -12c-2,-2 -2,-5 0,-7 2,-2 5,-2 7,0l12 12c2,2 2,5 0,7 -1,1 -2,2 -4,2z"/>
      </g>
      <g id="_304521784">
       <path class="fil0" d="M454 323c-3,0 -6,-2 -6,-5l0 -17c0,-3 3,-5 6,-5 2,0 5,2 5,5l0 17c0,3 -3,5 -5,5z"/>
      </g>
      <g id="_304521664">
       <path class="fil0" d="M432 314c-2,0 -3,-1 -4,-2 -2,-2 -2,-5 0,-7l12 -12c2,-2 5,-2 7,0 2,2 2,5 0,7l-12 12c-1,1 -2,2 -3,2z"/>
      </g>
      <g id="_304522072">
       <path class="fil0" d="M440 292l-17 0c-3,0 -5,-2 -5,-5 0,-3 2,-5 5,-5l17 0c2,0 5,2 5,5 0,3 -3,5 -5,5z"/>
      </g>
      <g id="_304522144">
       <path class="fil0" d="M444 282c-2,0 -3,0 -4,-1l-12 -12c-2,-2 -2,-6 0,-8 2,-2 5,-2 7,0l12 12c2,2 2,6 0,8 -1,1 -2,1 -3,1z"/>
      </g>
     </g>
    </g>
    <g>
     <g>
      <g id="_304522216">
       <path class="fil0" d="M454 421c-11,0 -19,-8 -19,-19 0,-10 8,-19 19,-19 10,0 19,9 19,19 0,11 -9,19 -19,19zm0 -27c-5,0 -9,4 -9,8 0,5 4,9 9,9 4,0 8,-4 8,-9 0,-4 -4,-8 -8,-8z"/>
      </g>
      <g id="_304522384">
       <path class="fil0" d="M454 439c-3,0 -6,-3 -6,-6l0 -17c0,-2 3,-5 6,-5 2,0 5,3 5,5l0 17c0,3 -3,6 -5,6z"/>
      </g>
      <g id="_304522456">
       <path class="fil0" d="M432 429c-2,0 -3,0 -4,-1 -2,-2 -2,-5 0,-7l12 -12c2,-2 5,-2 7,0 2,2 2,5 0,7l-12 12c-1,1 -2,1 -3,1z"/>
      </g>
      <g id="_304522552">
       <path class="fil0" d="M440 408l-17 0c-3,0 -5,-3 -5,-6 0,-2 2,-5 5,-5l17 0c2,0 5,3 5,5 0,3 -3,6 -5,6z"/>
      </g>
      <g id="_304522576">
       <path class="fil0" d="M444 398c-2,0 -3,-1 -4,-2l-12 -12c-2,-2 -2,-5 0,-7 2,-2 5,-2 7,0l12 12c2,2 2,5 0,7 -1,1 -2,2 -3,2z"/>
      </g>
      <g id="_304522528">
       <path class="fil0" d="M454 394c-3,0 -6,-3 -6,-5l0 -17c0,-3 3,-6 6,-6 2,0 5,3 5,6l0 17c0,2 -3,5 -5,5z"/>
      </g>
      <g id="_304522696">
       <path class="fil0" d="M463 398c-1,0 -2,-1 -3,-2 -2,-2 -2,-5 0,-7l12 -12c2,-2 5,-2 7,0 2,2 2,5 0,7l-12 12c-1,1 -2,2 -4,2z"/>
      </g>
      <g id="_304522768">
       <path class="fil0" d="M484 408l-17 0c-2,0 -5,-3 -5,-6 0,-2 3,-5 5,-5l17 0c3,0 6,3 6,5 0,3 -3,6 -6,6z"/>
      </g>
      <g id="_304522864">
       <path class="fil0" d="M475 429c-1,0 -2,0 -3,-1l-12 -12c-2,-2 -2,-5 0,-7 2,-2 5,-2 7,0l12 12c2,2 2,5 0,7 -1,1 -2,1 -4,1z"/>
      </g>
     </g>
     <g>
      <g id="_304523008">
       <path class="fil0" d="M355 409c-11,0 -19,-9 -19,-19 0,-11 8,-19 19,-19 10,0 19,8 19,19 0,10 -9,19 -19,19zm0 -28c-5,0 -9,4 -9,9 0,5 4,9 9,9 5,0 9,-4 9,-9 0,-5 -4,-9 -9,-9z"/>
      </g>
      <g id="_304523080">
       <path class="fil0" d="M355 426c-3,0 -5,-2 -5,-5l0 -17c0,-3 2,-5 5,-5 3,0 5,2 5,5l0 17c0,3 -2,5 -5,5z"/>
      </g>
      <g id="_304522840">
       <path class="fil0" d="M333 417c-1,0 -3,-1 -4,-2 -2,-2 -2,-5 0,-7l12 -12c2,-2 6,-2 8,0 2,2 2,5 0,7l-12 12c-1,1 -3,2 -4,2z"/>
      </g>
      <g id="_304522000">
       <path class="fil0" d="M341 395l-17 0c-3,0 -5,-2 -5,-5 0,-3 2,-5 5,-5l17 0c3,0 5,2 5,5 0,3 -2,5 -5,5z"/>
      </g>
      <g id="_304523416">
       <path class="fil0" d="M345 385c-1,0 -3,0 -4,-1l-12 -12c-2,-2 -2,-6 0,-8 2,-2 6,-2 8,0l12 12c2,2 2,6 0,8 -1,1 -3,1 -4,1z"/>
      </g>
      <g id="_304523392">
       <path class="fil0" d="M355 381c-3,0 -5,-2 -5,-5l0 -17c0,-3 2,-5 5,-5 3,0 5,2 5,5l0 17c0,3 -2,5 -5,5z"/>
      </g>
      <g id="_304523272">
       <path class="fil0" d="M365 385c-2,0 -3,0 -4,-1 -2,-2 -2,-6 0,-8l12 -12c2,-2 5,-2 7,0 2,2 2,6 0,8l-12 12c-1,1 -2,1 -3,1z"/>
      </g>
      <g id="_304522048">
       <path class="fil0" d="M386 395l-17 0c-3,0 -5,-2 -5,-5 0,-3 2,-5 5,-5l17 0c3,0 5,2 5,5 0,3 -2,5 -5,5z"/>
      </g>
      <g id="_304521832">
       <path class="fil0" d="M377 417c-2,0 -3,-1 -4,-2l-12 -12c-2,-2 -2,-5 0,-7 2,-2 5,-2 7,0l12 12c2,2 2,5 0,7 -1,1 -2,2 -3,2z"/>
      </g>
     </g>
     <g>
      <g id="_304523560">
       <path class="fil0" d="M256 421c-10,0 -19,-8 -19,-19 0,-10 9,-19 19,-19 10,0 19,9 19,19 0,11 -9,19 -19,19zm0 -27c-5,0 -9,4 -9,8 0,5 4,9 9,9 5,0 9,-4 9,-9 0,-4 -4,-8 -9,-8z"/>
      </g>
      <g id="_304523488">
       <path class="fil0" d="M256 439c-3,0 -5,-3 -5,-6l0 -17c0,-2 2,-5 5,-5 3,0 5,3 5,5l0 17c0,3 -2,6 -5,6z"/>
      </g>
      <g id="_304521856">
       <path class="fil0" d="M234 429c-1,0 -2,0 -3,-1 -2,-2 -2,-5 0,-7l12 -12c2,-2 5,-2 7,0 2,2 2,5 0,7l-12 12c-1,1 -3,1 -4,1z"/>
      </g>
      <g id="_178559168">
       <path class="fil0" d="M242 408l-17 0c-3,0 -5,-3 -5,-6 0,-2 2,-5 5,-5l17 0c3,0 5,3 5,5 0,3 -2,6 -5,6z"/>
      </g>
      <g id="_180164376">
       <path class="fil0" d="M246 398c-1,0 -2,-1 -3,-2l-12 -12c-2,-2 -2,-5 0,-7 2,-2 5,-2 7,0l12 12c2,2 2,5 0,7 -1,1 -3,2 -4,2z"/>
      </g>
      <g id="_303812872">
       <path class="fil0" d="M256 394c-3,0 -5,-3 -5,-5l0 -17c0,-3 2,-6 5,-6 3,0 5,3 5,6l0 17c0,2 -2,5 -5,5z"/>
      </g>
      <g id="_303812656">
       <path class="fil0" d="M266 398c-1,0 -3,-1 -4,-2 -2,-2 -2,-5 0,-7l12 -12c2,-2 5,-2 7,0 2,2 2,5 0,7l-12 12c-1,1 -2,2 -3,2z"/>
      </g>
      <g id="_308763288">
       <path class="fil0" d="M287 408l-17 0c-3,0 -5,-3 -5,-6 0,-2 2,-5 5,-5l17 0c3,0 5,3 5,5 0,3 -2,6 -5,6z"/>
      </g>
      <g id="_308763360">
       <path class="fil0" d="M278 429c-1,0 -3,0 -4,-1l-12 -12c-2,-2 -2,-5 0,-7 2,-2 5,-2 7,0l12 12c2,2 2,5 0,7 -1,1 -2,1 -3,1z"/>
      </g>
     </g>
     <g>
      <g id="_308763504">
       <path class="fil0" d="M157 409c-10,0 -19,-9 -19,-19 0,-11 9,-19 19,-19 11,0 19,8 19,19 0,10 -8,19 -19,19zm0 -28c-5,0 -9,4 -9,9 0,5 4,9 9,9 5,0 9,-4 9,-9 0,-5 -4,-9 -9,-9z"/>
      </g>
      <g id="_308763576">
       <path class="fil0" d="M157 426c-3,0 -5,-2 -5,-5l0 -17c0,-3 2,-5 5,-5 3,0 5,2 5,5l0 17c0,3 -2,5 -5,5z"/>
      </g>
      <g id="_308763600">
       <path class="fil0" d="M135 417c-1,0 -2,-1 -3,-2 -2,-2 -2,-5 0,-7l12 -12c2,-2 5,-2 7,0 2,2 2,5 0,7l-12 12c-1,1 -2,2 -4,2z"/>
      </g>
      <g id="_308763672">
       <path class="fil0" d="M143 395l-17 0c-3,0 -5,-2 -5,-5 0,-3 2,-5 5,-5l17 0c3,0 5,2 5,5 0,3 -2,5 -5,5z"/>
      </g>
      <g id="_308763744">
       <path class="fil0" d="M147 385c-1,0 -2,0 -3,-1l-12 -12c-2,-2 -2,-6 0,-8 2,-2 5,-2 7,0l12 12c2,2 2,6 0,8 -1,1 -2,1 -4,1z"/>
      </g>
      <g id="_308763816">
       <path class="fil0" d="M157 381c-3,0 -5,-2 -5,-5l0 -17c0,-3 2,-5 5,-5 3,0 5,2 5,5l0 17c0,3 -2,5 -5,5z"/>
      </g>
      <g id="_308763888">
       <path class="fil0" d="M167 385c-1,0 -3,0 -4,-1 -2,-2 -2,-6 0,-8l12 -12c2,-2 6,-2 8,0 2,2 2,6 0,8l-12 12c-1,1 -3,1 -4,1z"/>
      </g>
      <g id="_304523440">
       <path class="fil0" d="M188 395l-17 0c-3,0 -5,-2 -5,-5 0,-3 2,-5 5,-5l17 0c3,0 5,2 5,5 0,3 -2,5 -5,5z"/>
      </g>
      <g id="_304523656">
       <path class="fil0" d="M179 417c-1,0 -3,-1 -4,-2l-12 -12c-2,-2 -2,-5 0,-7 2,-2 6,-2 8,0l12 12c2,2 2,5 0,7 -1,1 -3,2 -4,2z"/>
      </g>
     </g>
     <g>
      <g id="_308766864">
       <path class="fil0" d="M58 421c-10,0 -19,-8 -19,-19 0,-10 9,-19 19,-19 11,0 19,9 19,19 0,11 -8,19 -19,19zm0 -27c-4,0 -8,4 -8,8 0,5 4,9 8,9 5,0 9,-4 9,-9 0,-4 -4,-8 -9,-8z"/>
      </g>
      <g id="_304520704">
       <path class="fil0" d="M58 439c-2,0 -5,-3 -5,-6l0 -17c0,-2 3,-5 5,-5 3,0 6,3 6,5l0 17c0,3 -3,6 -6,6z"/>
      </g>
      <g id="_308766432">
       <path class="fil0" d="M37 429c-2,0 -3,0 -4,-1 -2,-2 -2,-5 0,-7l12 -12c2,-2 5,-2 7,0 2,2 2,5 0,7l-12 12c-1,1 -2,1 -3,1z"/>
      </g>
      <g id="_307471024">
       <path class="fil0" d="M45 408l-17 0c-3,0 -6,-3 -6,-6 0,-2 3,-5 6,-5l17 0c2,0 5,3 5,5 0,3 -3,6 -5,6z"/>
      </g>
      <g id="_180223680">
       <path class="fil0" d="M49 398c-2,0 -3,-1 -4,-2l-12 -12c-2,-2 -2,-5 0,-7 2,-2 5,-2 7,0l12 12c2,2 2,5 0,7 -1,1 -2,2 -3,2z"/>
      </g>
      <g id="_180223752">
       <path class="fil0" d="M58 394c-2,0 -5,-3 -5,-5l0 -17c0,-3 3,-6 5,-6 3,0 6,3 6,6l0 17c0,2 -3,5 -6,5z"/>
      </g>
      <g id="_180223776">
       <path class="fil0" d="M68 398c-1,0 -2,-1 -3,-2 -2,-2 -2,-5 0,-7l12 -12c2,-2 5,-2 7,0 2,2 2,5 0,7l-12 12c-1,1 -2,2 -4,2z"/>
      </g>
      <g id="_180223848">
       <path class="fil0" d="M89 408l-17 0c-2,0 -5,-3 -5,-6 0,-2 3,-5 5,-5l17 0c3,0 5,3 5,5 0,3 -2,6 -5,6z"/>
      </g>
      <g id="_180223920">
       <path class="fil0" d="M80 429c-1,0 -2,0 -3,-1l-12 -12c-2,-2 -2,-5 0,-7 2,-2 5,-2 7,0l12 12c2,2 2,5 0,7 -1,1 -2,1 -4,1z"/>
      </g>
     </g>
    </g>
   </g>
  </g>
 </g>
</svg>
