<?xml version="1.0" encoding="UTF-8"?>
<!DOCTYPE svg PUBLIC "-//W3C//DTD SVG 1.1//EN" "http://www.w3.org/Graphics/SVG/1.1/DTD/svg11.dtd">
<!-- Creator: CorelDRAW -->
<svg xmlns="http://www.w3.org/2000/svg" xml:space="preserve" width="512px" height="512px" version="1.1" style="shape-rendering:geometricPrecision; text-rendering:geometricPrecision; image-rendering:optimizeQuality; fill-rule:evenodd; clip-rule:evenodd"
viewBox="0 0 512 512"
 xmlns:xlink="http://www.w3.org/1999/xlink">
 <defs>
  <style type="text/css">
   <![CDATA[
    .fil0 {fill:black}
   ]]>
  </style>
 </defs>
 <g id="Layer_x0020_1">
  <metadata id="CorelCorpID_0Corel-Layer"/>
  <g id="_307475368">
   <g>
    <g id="_307475704">
     <path class="fil0" d="M256 398c-78,0 -142,-64 -142,-142 0,-78 64,-142 142,-142 78,0 142,64 142,142 0,78 -64,142 -142,142zm0 -274c-73,0 -132,59 -132,132 0,73 59,132 132,132 73,0 132,-59 132,-132 0,-73 -59,-132 -132,-132z"/>
    </g>
    <g>
     <g id="_307476040">
      <path class="fil0" d="M256 79c-3,0 -5,-2 -5,-5l0 -69c0,-3 2,-5 5,-5 3,0 5,2 5,5l0 69c0,3 -2,5 -5,5z"/>
     </g>
     <g id="_307475488">
      <path class="fil0" d="M507 261l-69 0c-3,0 -5,-2 -5,-5 0,-3 2,-5 5,-5l69 0c3,0 5,2 5,5 0,3 -2,5 -5,5z"/>
     </g>
     <g id="_307476304">
      <path class="fil0" d="M256 512c-3,0 -5,-2 -5,-5l0 -69c0,-3 2,-5 5,-5 3,0 5,2 5,5l0 69c0,3 -2,5 -5,5z"/>
     </g>
     <g id="_307474984">
      <path class="fil0" d="M74 261l-69 0c-3,0 -5,-2 -5,-5 0,-3 2,-5 5,-5l69 0c3,0 5,2 5,5 0,3 -2,5 -5,5z"/>
     </g>
    </g>
    <g>
     <g id="_307475032">
      <path class="fil0" d="M378 139c-1,0 -2,-1 -3,-2 -2,-2 -2,-5 0,-7l46 -46c2,-2 5,-2 7,0 2,2 2,5 0,7l-46 46c-1,1 -2,2 -4,2z"/>
     </g>
     <g id="_307474960">
      <path class="fil0" d="M425 430c-2,0 -3,-1 -4,-2l-46 -46c-2,-2 -2,-5 0,-7 2,-2 5,-2 7,0l46 46c2,2 2,5 0,7 -1,1 -2,2 -3,2z"/>
     </g>
     <g id="_307478464">
      <path class="fil0" d="M87 430c-1,0 -2,-1 -3,-2 -2,-2 -2,-5 0,-7l46 -46c2,-2 5,-2 7,0 2,2 2,5 0,7l-46 46c-1,1 -2,2 -4,2z"/>
     </g>
     <g id="_307476664">
      <path class="fil0" d="M134 139c-2,0 -3,-1 -4,-2l-46 -46c-2,-2 -2,-5 0,-7 2,-2 5,-2 7,0l46 46c2,2 2,5 0,7 -1,1 -2,2 -3,2z"/>
     </g>
    </g>
   </g>
  </g>
 </g>
</svg>
