<?xml version="1.0" encoding="UTF-8"?>
<!DOCTYPE svg PUBLIC "-//W3C//DTD SVG 1.1//EN" "http://www.w3.org/Graphics/SVG/1.1/DTD/svg11.dtd">
<!-- Creator: CorelDRAW -->
<svg xmlns="http://www.w3.org/2000/svg" xml:space="preserve" width="512px" height="512px" version="1.1" style="shape-rendering:geometricPrecision; text-rendering:geometricPrecision; image-rendering:optimizeQuality; fill-rule:evenodd; clip-rule:evenodd"
viewBox="0 0 512 512"
 xmlns:xlink="http://www.w3.org/1999/xlink">
 <defs>
  <style type="text/css">
   <![CDATA[
    .fil0 {fill:black}
   ]]>
  </style>
 </defs>
 <g id="Layer_x0020_1">
  <metadata id="CorelCorpID_0Corel-Layer"/>
  <g id="_180298952">
   <g>
    <g>
     <g id="_180299168">
      <path class="fil0" d="M334 442l-280 0c-1,0 -1,0 -2,0 -31,-9 -51,-34 -52,-63 -1,-27 15,-49 40,-59 1,-4 4,-14 10,-24 11,-18 27,-28 48,-28 3,0 5,0 8,1 14,-36 48,-59 88,-59 39,0 73,23 87,59 3,-1 6,-1 8,-1 21,0 38,10 49,28 5,10 8,20 9,24 26,10 41,32 40,59 -1,29 -21,54 -52,63 0,0 -1,0 -1,0zm-280 -10l279 0c26,-8 43,-29 44,-54 0,-22 -13,-41 -36,-49 -2,0 -3,-2 -3,-4 -1,-2 -8,-47 -49,-47 -3,0 -7,1 -11,1 -2,1 -5,-1 -5,-3 -12,-34 -43,-55 -79,-55 -37,0 -68,21 -79,55 -1,2 -4,4 -6,3 -22,-3 -40,4 -51,22 -7,12 -9,24 -9,24 0,2 -1,4 -3,4 -23,8 -36,27 -36,49 1,25 18,46 44,54z"/>
     </g>
     <g id="_180299240">
      <path class="fil0" d="M458 442l-124 0c-3,0 -5,-2 -5,-5 0,-3 2,-5 5,-5l124 0c23,0 39,-14 43,-38 4,-24 -7,-55 -36,-65 -2,0 -3,-2 -3,-4 0,0 -4,-26 -23,-39 -10,-7 -22,-9 -37,-7 -2,1 -5,-1 -5,-3 -9,-27 -30,-46 -58,-53 -29,-7 -59,1 -80,20 -2,2 -5,2 -7,0 -2,-2 -2,-5 0,-7 23,-22 57,-31 89,-23 30,8 53,28 64,56 15,-2 29,1 40,9 18,13 24,35 26,42 32,13 45,48 40,76 -4,22 -20,46 -53,46z"/>
     </g>
    </g>
    <g>
     <g id="_180299336">
      <path class="fil0" d="M116 265c-1,0 -2,0 -3,0 -22,-14 -36,-38 -36,-64 0,-41 34,-74 74,-74 41,0 74,33 74,74 0,7 -1,13 -2,19 -1,3 -4,4 -6,4 -3,-1 -5,-4 -4,-7 1,-5 2,-10 2,-16 0,-35 -29,-64 -64,-64 -35,0 -63,29 -63,64 0,23 11,43 31,55 2,1 3,4 1,7 -1,1 -2,2 -4,2z"/>
     </g>
     <g>
      <g id="_180299480">
       <path class="fil0" d="M151 115c-2,0 -5,-2 -5,-5l0 -35c0,-3 3,-5 5,-5 3,0 5,2 5,5l0 35c0,3 -2,5 -5,5z"/>
      </g>
      <g id="_180299552">
       <path class="fil0" d="M277 206l-34 0c-3,0 -5,-2 -5,-5 0,-3 2,-5 5,-5l34 0c3,0 5,2 5,5 0,3 -2,5 -5,5z"/>
      </g>
      <g id="_180299624">
       <path class="fil0" d="M60 206l-35 0c-2,0 -5,-2 -5,-5 0,-3 3,-5 5,-5l35 0c3,0 5,2 5,5 0,3 -2,5 -5,5z"/>
      </g>
     </g>
     <g>
      <g id="_180299768">
       <path class="fil0" d="M223 135c-2,0 -3,0 -4,-1 -2,-2 -2,-6 0,-8l27 -27c2,-2 5,-2 7,0 2,2 2,6 0,8l-27 27c-1,1 -2,1 -3,1z"/>
      </g>
      <g id="_180299840">
       <path class="fil0" d="M80 135c-1,0 -3,0 -4,-1l-27 -27c-2,-2 -2,-6 0,-8 2,-2 6,-2 8,0l27 27c2,2 2,6 0,8 -1,1 -3,1 -4,1z"/>
      </g>
     </g>
    </g>
   </g>
  </g>
 </g>
</svg>
