<?xml version="1.0" encoding="UTF-8"?>
<!DOCTYPE svg PUBLIC "-//W3C//DTD SVG 1.1//EN" "http://www.w3.org/Graphics/SVG/1.1/DTD/svg11.dtd">
<!-- Creator: CorelDRAW -->
<svg xmlns="http://www.w3.org/2000/svg" xml:space="preserve" width="512px" height="512px" version="1.1" style="shape-rendering:geometricPrecision; text-rendering:geometricPrecision; image-rendering:optimizeQuality; fill-rule:evenodd; clip-rule:evenodd"
viewBox="0 0 512 512"
 xmlns:xlink="http://www.w3.org/1999/xlink">
 <defs>
  <style type="text/css">
   <![CDATA[
    .fil0 {fill:black}
   ]]>
  </style>
 </defs>
 <g id="Layer_x0020_1">
  <metadata id="CorelCorpID_0Corel-Layer"/>
  <g id="_180298208">
   <g id="_180298280">
    <path class="fil0" d="M256 469c-76,0 -138,-57 -138,-127 0,-36 59,-150 114,-254 10,-18 17,-33 22,-42 1,-2 3,-3 5,-3 2,0 3,1 4,3 5,10 13,27 24,49 54,107 107,215 107,247 0,70 -62,127 -138,127zm2 -409c-4,9 -10,20 -17,33 -39,74 -113,213 -113,249 0,64 58,117 128,117 70,0 128,-53 128,-117 0,-32 -69,-169 -106,-243 -8,-16 -15,-29 -20,-39z"/>
   </g>
   <g id="_180298352">
    <path class="fil0" d="M256 469c-76,0 -138,-57 -138,-127 0,-36 59,-150 114,-254 10,-18 17,-33 22,-42 1,-2 3,-3 5,-3 2,0 3,1 4,3 5,10 13,27 24,49 54,107 107,215 107,247 0,70 -62,127 -138,127zm2 -409c-4,9 -10,20 -17,33 -39,74 -113,213 -113,249 0,64 58,117 128,117 70,0 128,-53 128,-117 0,-32 -69,-169 -106,-243 -8,-16 -15,-29 -20,-39z"/>
   </g>
   <g id="_180298424">
    <path class="fil0" d="M138 469c-76,0 -138,-57 -138,-127 0,-36 59,-150 114,-254 9,-18 17,-33 22,-42 1,-2 2,-3 4,-3 2,0 4,1 5,3 5,10 13,27 24,49 10,20 21,43 33,67 2,3 1,6 -2,7 -2,1 -6,0 -7,-2 -12,-25 -23,-48 -33,-68 -8,-16 -15,-29 -20,-39 -4,9 -10,20 -17,33 -40,74 -113,213 -113,249 0,64 57,117 128,117 20,0 39,-5 57,-13 2,-1 5,0 7,3 1,2 0,5 -3,7 -19,8 -40,13 -61,13z"/>
   </g>
   <g id="_180298496">
    <path class="fil0" d="M374 469c-21,0 -42,-5 -61,-13 -3,-2 -4,-5 -3,-7 2,-3 5,-4 7,-3 18,8 37,13 57,13 71,0 128,-53 128,-117 0,-32 -69,-169 -106,-243 -8,-16 -15,-29 -19,-39 -5,9 -11,20 -18,33 -11,21 -25,47 -38,74 -2,2 -5,3 -7,2 -3,-1 -4,-4 -3,-7 14,-27 28,-53 39,-74 10,-18 17,-33 22,-42 1,-2 3,-3 5,-3 0,0 0,0 0,0 2,0 3,1 4,3 5,10 14,27 24,49 54,107 107,215 107,247 0,70 -62,127 -138,127z"/>
   </g>
  </g>
 </g>
</svg>
