<?xml version="1.0" encoding="UTF-8"?>
<!DOCTYPE svg PUBLIC "-//W3C//DTD SVG 1.1//EN" "http://www.w3.org/Graphics/SVG/1.1/DTD/svg11.dtd">
<!-- Creator: CorelDRAW -->
<svg xmlns="http://www.w3.org/2000/svg" xml:space="preserve" width="512px" height="512px" version="1.1" style="shape-rendering:geometricPrecision; text-rendering:geometricPrecision; image-rendering:optimizeQuality; fill-rule:evenodd; clip-rule:evenodd"
viewBox="0 0 512 512"
 xmlns:xlink="http://www.w3.org/1999/xlink">
 <defs>
  <style type="text/css">
   <![CDATA[
    .fil0 {fill:black}
   ]]>
  </style>
 </defs>
 <g id="Layer_x0020_1">
  <metadata id="CorelCorpID_0Corel-Layer"/>
  <g id="_307470760">
   <g>
    <g id="_307472176">
     <path class="fil0" d="M334 295l-280 0c-1,0 -1,0 -2,0 -31,-9 -51,-34 -52,-63 -1,-26 15,-49 40,-58 1,-5 4,-15 10,-25 11,-18 27,-28 48,-28 3,0 5,1 8,1 14,-36 48,-58 88,-58 39,0 73,22 87,58 3,0 6,-1 8,-1 21,0 38,10 49,28 5,10 8,20 9,25 26,9 41,32 40,58 -1,29 -21,54 -52,63 0,0 -1,0 -1,0zm-280 -10l279 0c26,-8 43,-29 44,-53 0,-23 -13,-42 -36,-50 -2,0 -3,-2 -3,-4 -1,-2 -8,-46 -49,-46 -3,0 -7,0 -11,1 -2,0 -5,-1 -5,-4 -12,-33 -43,-55 -79,-55 -37,0 -68,22 -79,55 -1,3 -4,4 -6,4 -4,-1 -8,-1 -11,-1 -41,0 -48,44 -49,46 0,2 -1,4 -3,4 -23,8 -36,27 -36,50 1,24 18,45 44,53z"/>
    </g>
    <g id="_307472152">
     <path class="fil0" d="M458 295l-124 0c-3,0 -5,-2 -5,-5 0,-3 2,-5 5,-5l124 0c23,0 39,-14 43,-38 4,-24 -7,-55 -36,-65 -2,0 -3,-2 -3,-4 0,0 -4,-25 -23,-39 -10,-7 -22,-9 -37,-6 -2,0 -5,-1 -5,-4 -9,-26 -30,-46 -58,-52 -29,-8 -59,0 -80,20 -2,2 -5,1 -7,-1 -2,-2 -2,-5 0,-7 23,-22 57,-30 89,-22 30,7 53,27 64,55 15,-2 29,1 40,9 18,13 24,35 26,43 32,12 45,47 40,75 -4,22 -20,46 -53,46z"/>
    </g>
    <g id="_307472080">
     <path class="fil0" d="M293 244l-199 0c-3,0 -5,-2 -5,-5 0,-3 2,-5 5,-5l199 0c3,0 5,2 5,5 0,3 -2,5 -5,5z"/>
    </g>
    <g id="_307470832">
     <path class="fil0" d="M346 346l-305 0c-3,0 -5,-2 -5,-5 0,-3 2,-5 5,-5l305 0c3,0 5,2 5,5 0,3 -2,5 -5,5z"/>
    </g>
    <g id="_307478440">
     <path class="fil0" d="M293 397l-199 0c-3,0 -5,-2 -5,-5 0,-3 2,-5 5,-5l199 0c3,0 5,2 5,5 0,3 -2,5 -5,5z"/>
    </g>
    <g id="_307470856">
     <path class="fil0" d="M346 448l-305 0c-3,0 -5,-2 -5,-5 0,-3 2,-5 5,-5l305 0c3,0 5,2 5,5 0,3 -2,5 -5,5z"/>
    </g>
   </g>
  </g>
 </g>
</svg>
