<?xml version="1.0" encoding="UTF-8"?>
<!DOCTYPE svg PUBLIC "-//W3C//DTD SVG 1.1//EN" "http://www.w3.org/Graphics/SVG/1.1/DTD/svg11.dtd">
<!-- Creator: CorelDRAW -->
<svg xmlns="http://www.w3.org/2000/svg" xml:space="preserve" width="512px" height="512px" version="1.1" style="shape-rendering:geometricPrecision; text-rendering:geometricPrecision; image-rendering:optimizeQuality; fill-rule:evenodd; clip-rule:evenodd"
viewBox="0 0 512 512"
 xmlns:xlink="http://www.w3.org/1999/xlink">
 <defs>
  <style type="text/css">
   <![CDATA[
    .fil0 {fill:black}
   ]]>
  </style>
 </defs>
 <g id="Layer_x0020_1">
  <metadata id="CorelCorpID_0Corel-Layer"/>
  <g id="_180326104">
   <g>
    <g>
     <g id="_180207632">
      <path class="fil0" d="M342 146l-172 0c-1,0 -1,0 -1,0 -20,-6 -33,-22 -34,-41 0,-16 9,-30 25,-37 3,-13 13,-33 37,-33 1,0 3,0 4,1 9,-22 30,-36 55,-36 25,0 46,14 55,36 1,-1 2,-1 4,-1 23,0 34,20 37,33 16,7 25,21 25,37 -1,19 -14,35 -34,41 0,0 -1,0 -1,0zm-171 -10l170 0c15,-5 25,-17 26,-31 0,-10 -5,-23 -21,-28 -2,-1 -3,-2 -3,-4 -1,-1 -5,-27 -28,-27 -2,0 -4,0 -7,0 -2,1 -5,-1 -5,-3 -7,-20 -25,-33 -47,-33 -22,0 -40,13 -47,33 0,2 -3,4 -5,3 -3,0 -5,0 -7,0 -23,0 -27,26 -28,27 0,2 -1,3 -3,4 -16,5 -21,18 -21,28 1,14 11,26 26,31z"/>
     </g>
     <g id="_180207296">
      <path class="fil0" d="M459 146l-172 0c-3,0 -5,-2 -5,-5 0,-3 2,-5 5,-5l171 0c15,-5 25,-17 26,-31 0,-10 -5,-23 -21,-28 -2,-1 -3,-2 -3,-4 0,0 -3,-15 -13,-23 -6,-4 -13,-5 -22,-4 -2,1 -5,-1 -5,-3 -7,-20 -25,-33 -47,-33 -22,0 -40,13 -47,33 -1,3 -3,4 -6,3 -3,-1 -4,-4 -3,-6 8,-24 30,-40 56,-40 0,0 0,0 0,0 25,0 46,14 55,36 9,-1 18,1 25,6 10,8 15,20 16,26 16,7 25,21 25,37 -1,19 -14,35 -34,41 0,0 0,0 -1,0z"/>
     </g>
     <g id="_303854752">
      <path class="fil0" d="M225 146l-172 0c-1,0 -1,0 -1,0 -20,-6 -33,-22 -34,-41 0,-16 9,-30 25,-37 1,-6 6,-18 16,-26 7,-5 16,-7 25,-6 9,-22 30,-36 55,-36 0,0 0,0 0,0 26,0 48,16 56,40 1,2 0,5 -3,6 -3,1 -5,0 -6,-3 -7,-20 -25,-33 -47,-33 -22,0 -40,13 -47,33 0,2 -3,4 -5,3 -9,-1 -16,0 -22,4 -10,8 -13,23 -13,23 0,2 -1,3 -3,4 -16,5 -21,18 -21,28 1,14 11,26 26,31l171 0c3,0 5,2 5,5 0,3 -2,5 -5,5z"/>
     </g>
    </g>
    <g>
     <g id="_180296384">
      <path class="fil0" d="M94 251c-15,0 -27,-11 -27,-26 0,-6 7,-21 19,-44 2,-3 3,-6 4,-7 1,-2 3,-3 5,-3 2,0 4,1 4,3 1,2 3,5 4,8 12,24 19,38 19,43 0,15 -13,26 -28,26zm1 -63c-6,9 -18,33 -18,37 0,9 8,16 17,16 10,0 17,-7 17,-16 0,-4 -11,-28 -16,-37z"/>
     </g>
     <g id="_180296456">
      <path class="fil0" d="M175 278c-12,0 -22,-10 -22,-21 0,-5 5,-16 15,-35 1,-2 2,-4 3,-5 1,-2 3,-3 5,-3 1,0 3,1 4,3 1,1 2,4 3,6 9,19 14,29 14,34 0,11 -10,21 -22,21zm0 -47c-4,8 -11,22 -12,26 0,6 6,10 12,10 7,0 12,-4 12,-10 0,-4 -8,-18 -12,-26z"/>
     </g>
     <g id="_180296528">
      <path class="fil0" d="M256 251c-15,0 -27,-11 -27,-26 0,-6 7,-21 19,-44 2,-3 3,-6 4,-7 1,-2 2,-3 4,-3 0,0 0,0 0,0 2,0 4,1 5,3 1,2 2,5 4,8 12,24 18,38 18,43 0,15 -12,26 -27,26zm0 -63c-5,9 -17,33 -17,37 0,9 8,16 17,16 9,0 17,-7 17,-16 0,-4 -12,-28 -17,-37z"/>
     </g>
     <g id="_180296600">
      <path class="fil0" d="M337 278c-12,0 -22,-10 -22,-21 0,-5 5,-16 15,-35 1,-2 2,-4 3,-5 0,-2 2,-3 4,-3 2,0 4,1 5,3 0,1 2,4 3,6 9,19 14,29 14,34 0,11 -10,21 -22,21zm0 -47c-4,8 -12,22 -12,26 0,6 5,10 12,10 6,0 12,-4 12,-10 -1,-4 -8,-18 -12,-26z"/>
     </g>
     <g id="_180296624">
      <path class="fil0" d="M418 251c-15,0 -28,-11 -28,-26 0,-6 8,-21 20,-44 1,-3 3,-6 4,-7 0,-2 2,-3 4,-3 0,0 0,0 0,0 2,0 4,1 5,3 1,2 2,5 4,8 12,24 18,38 18,43 0,15 -12,26 -27,26zm0 -63c-5,9 -17,33 -17,37 0,9 7,16 17,16 9,0 17,-7 17,-16 0,-4 -12,-28 -17,-37z"/>
     </g>
    </g>
    <g>
     <g id="_180296768">
      <path class="fil0" d="M94 368c-15,0 -27,-11 -27,-25 0,-7 7,-21 19,-45 2,-3 3,-5 4,-7 1,-2 3,-3 5,-3 2,0 4,2 4,3 1,2 3,5 4,8 12,24 19,38 19,44 0,14 -13,25 -28,25zm1 -63c-6,10 -18,33 -18,38 0,8 8,15 17,15 10,0 17,-7 17,-15 0,-5 -11,-28 -16,-38z"/>
     </g>
     <g id="_180296840">
      <path class="fil0" d="M175 395c-12,0 -22,-10 -22,-21 0,-5 5,-16 15,-34 1,-3 2,-5 3,-6 1,-2 3,-3 5,-3 1,0 3,2 4,3 1,2 2,4 3,6 9,19 14,29 14,34 0,11 -10,21 -22,21zm0 -47c-4,8 -11,23 -12,26 0,6 6,11 12,11 7,0 12,-5 12,-11 0,-3 -8,-18 -12,-26z"/>
     </g>
     <g id="_180296912">
      <path class="fil0" d="M256 368c-15,0 -27,-11 -27,-25 0,-7 7,-21 19,-45 2,-3 3,-5 4,-7 1,-2 2,-3 4,-3 0,0 0,0 0,0 2,0 4,2 5,3 1,2 2,5 4,8 12,24 18,38 18,44 0,14 -12,25 -27,25zm0 -63c-5,10 -17,33 -17,38 0,8 8,15 17,15 9,0 17,-7 17,-15 0,-5 -12,-28 -17,-38z"/>
     </g>
     <g id="_180296984">
      <path class="fil0" d="M337 395c-12,0 -22,-10 -22,-21 0,-5 5,-16 15,-34 1,-3 2,-5 3,-6 0,-2 2,-3 4,-3 0,0 0,0 0,0 2,0 4,2 5,3 0,2 2,4 3,6 9,19 14,29 14,34 0,11 -10,21 -22,21zm0 -47c-4,8 -12,23 -12,26 0,6 5,11 12,11 6,0 12,-5 12,-11 -1,-3 -8,-18 -12,-26z"/>
     </g>
     <g id="_180297056">
      <path class="fil0" d="M418 368c-15,0 -28,-11 -28,-25 0,-7 8,-21 20,-45 1,-3 3,-5 4,-7 0,-2 2,-3 4,-3 0,0 0,0 0,0 2,0 4,2 5,3 1,2 2,5 4,8 12,24 18,38 18,44 0,14 -12,25 -27,25zm0 -63c-5,10 -17,33 -17,38 0,8 7,15 17,15 9,0 17,-7 17,-15 0,-5 -12,-28 -17,-38z"/>
     </g>
    </g>
    <g>
     <g id="_180297200">
      <path class="fil0" d="M94 485c-15,0 -27,-11 -27,-25 0,-6 7,-21 19,-45 2,-3 3,-5 4,-7 1,-1 3,-2 5,-2 0,0 0,0 0,0 2,0 4,1 4,2 1,2 3,5 4,9 12,23 19,37 19,43 0,14 -13,25 -28,25zm1 -63c-6,10 -18,33 -18,38 0,8 8,15 17,15 10,0 17,-7 17,-15 0,-5 -11,-28 -16,-38z"/>
     </g>
     <g id="_180297272">
      <path class="fil0" d="M175 512c-12,0 -22,-9 -22,-21 0,-5 5,-16 15,-34 1,-3 2,-4 3,-6 1,-1 3,-2 5,-2 1,0 3,1 4,3 1,1 2,3 3,6 9,18 14,29 14,33 0,12 -10,21 -22,21zm0 -47c-4,8 -11,23 -12,26 0,6 6,11 12,11 7,0 12,-5 12,-11 0,-3 -8,-18 -12,-26z"/>
     </g>
     <g id="_180297296">
      <path class="fil0" d="M256 485c-15,0 -27,-11 -27,-25 0,-6 7,-21 19,-45 2,-3 3,-5 4,-7 1,-1 2,-2 4,-2 0,0 0,0 0,0 2,0 4,1 5,2 1,2 2,5 4,9 12,23 18,37 18,43 0,14 -12,25 -27,25zm0 -63c-5,10 -17,33 -17,38 0,8 8,15 17,15 9,0 17,-7 17,-15 0,-5 -12,-28 -17,-38z"/>
     </g>
     <g id="_180297368">
      <path class="fil0" d="M337 512c-12,0 -22,-9 -22,-21 0,-5 5,-16 15,-34 1,-3 2,-4 3,-6 0,-1 2,-2 4,-2 0,0 0,0 0,0 2,0 4,1 5,3 0,1 2,3 3,6 9,18 14,29 14,33 0,12 -10,21 -22,21zm0 -47c-4,8 -12,23 -12,26 0,6 5,11 12,11 6,0 12,-5 12,-11 -1,-3 -8,-18 -12,-26z"/>
     </g>
     <g id="_180297440">
      <path class="fil0" d="M418 485c-15,0 -28,-11 -28,-25 0,-6 8,-21 20,-45 1,-3 3,-5 4,-7 0,-1 2,-2 4,-2 0,0 0,0 0,0 2,0 4,1 5,2 1,2 2,5 4,9 12,23 18,37 18,43 0,14 -12,25 -27,25zm0 -63c-5,10 -17,33 -17,38 0,8 7,15 17,15 9,0 17,-7 17,-15 0,-5 -12,-28 -17,-38z"/>
     </g>
    </g>
   </g>
  </g>
 </g>
</svg>
