<?xml version="1.0" encoding="UTF-8"?>
<!DOCTYPE svg PUBLIC "-//W3C//DTD SVG 1.1//EN" "http://www.w3.org/Graphics/SVG/1.1/DTD/svg11.dtd">
<!-- Creator: CorelDRAW -->
<svg xmlns="http://www.w3.org/2000/svg" xml:space="preserve" width="512px" height="512px" version="1.1" style="shape-rendering:geometricPrecision; text-rendering:geometricPrecision; image-rendering:optimizeQuality; fill-rule:evenodd; clip-rule:evenodd"
viewBox="0 0 512 512"
 xmlns:xlink="http://www.w3.org/1999/xlink">
 <defs>
  <style type="text/css">
   <![CDATA[
    .fil0 {fill:black}
   ]]>
  </style>
 </defs>
 <g id="Layer_x0020_1">
  <metadata id="CorelCorpID_0Corel-Layer"/>
  <g id="_312770808">
   <g>
    <g id="_312771600">
     <path class="fil0" d="M256 316c-33,0 -60,-27 -60,-60 0,-33 27,-60 60,-60 33,0 60,27 60,60 0,33 -27,60 -60,60zm0 -110c-28,0 -50,22 -50,50 0,28 22,50 50,50 28,0 50,-22 50,-50 0,-28 -22,-50 -50,-50z"/>
    </g>
    <g>
     <g id="_312771552">
      <path class="fil0" d="M256 206c-3,0 -5,-2 -5,-5l0 -196c0,-3 2,-5 5,-5 3,0 5,2 5,5l0 196c0,3 -2,5 -5,5z"/>
     </g>
     <g id="_312773088">
      <path class="fil0" d="M256 166c-1,0 -3,-1 -4,-2l-47 -47c-2,-2 -2,-5 0,-7 2,-2 6,-2 8,0l43 44 43 -44c2,-2 6,-2 8,0 2,2 2,5 0,7l-47 47c-1,1 -3,2 -4,2z"/>
     </g>
     <g id="_312772896">
      <path class="fil0" d="M256 108c-1,0 -3,-1 -4,-2l-31 -31c-2,-2 -2,-5 0,-7 2,-2 5,-2 7,0l28 28 28 -28c2,-2 5,-2 7,0 2,2 2,5 0,7l-31 31c-1,1 -3,2 -4,2z"/>
     </g>
     <g id="_312772920">
      <path class="fil0" d="M256 52c-1,0 -3,0 -4,-1l-20 -21c-2,-2 -2,-5 0,-7 2,-2 5,-2 7,0l17 17 17 -17c2,-2 5,-2 7,0 2,2 2,5 0,7l-20 21c-1,1 -3,1 -4,1z"/>
     </g>
    </g>
    <g>
     <g id="_312769560">
      <path class="fil0" d="M507 261l-196 0c-3,0 -5,-2 -5,-5 0,-3 2,-5 5,-5l196 0c3,0 5,2 5,5 0,3 -2,5 -5,5z"/>
     </g>
     <g id="_312774888">
      <path class="fil0" d="M398 308c-1,0 -2,0 -3,-1l-47 -47c-2,-2 -2,-6 0,-8l47 -47c2,-2 5,-2 7,0 2,2 2,6 0,8l-44 43 44 43c2,2 2,6 0,8 -1,1 -3,1 -4,1z"/>
     </g>
     <g id="_312770784">
      <path class="fil0" d="M441 293c-2,0 -3,-1 -4,-2l-31 -31c-1,-1 -2,-3 -2,-4 0,-1 1,-3 2,-4l31 -31c2,-2 5,-2 7,0 2,2 2,5 0,7l-28 28 28 28c2,2 2,5 0,7 -1,1 -2,2 -3,2z"/>
     </g>
     <g id="_312770760">
      <path class="fil0" d="M486 282c-2,0 -3,-1 -4,-2l-21 -20c-2,-2 -2,-6 0,-8l21 -20c2,-2 5,-2 7,0 2,2 2,5 0,7l-17 17 17 17c2,2 2,5 0,7 -1,1 -2,2 -3,2z"/>
     </g>
    </g>
    <g>
     <g id="_312770688">
      <path class="fil0" d="M256 512c-3,0 -5,-2 -5,-5l0 -196c0,-3 2,-5 5,-5 3,0 5,2 5,5l0 196c0,3 -2,5 -5,5z"/>
     </g>
     <g id="_312770664">
      <path class="fil0" d="M209 403c-1,0 -3,0 -4,-1 -2,-2 -2,-5 0,-7l47 -47c2,-2 6,-2 8,0l47 47c2,2 2,5 0,7 -2,2 -6,2 -8,0l-43 -44 -43 44c-1,1 -3,1 -4,1z"/>
     </g>
     <g id="_312770472">
      <path class="fil0" d="M288 446c-2,0 -3,-1 -4,-2l-28 -28 -28 28c-2,2 -5,2 -7,0 -2,-2 -2,-5 0,-7l31 -31c2,-2 6,-2 8,0l31 31c2,2 2,5 0,7 -1,1 -2,2 -3,2z"/>
     </g>
     <g id="_312770376">
      <path class="fil0" d="M277 491c-1,0 -3,-1 -4,-2l-17 -17 -17 17c-2,2 -5,2 -7,0 -2,-2 -2,-5 0,-7l20 -21c2,-2 6,-2 8,0l20 21c2,2 2,5 0,7 -1,1 -2,2 -3,2z"/>
     </g>
    </g>
    <g>
     <g id="_312770304">
      <path class="fil0" d="M201 261l-196 0c-3,0 -5,-2 -5,-5 0,-3 2,-5 5,-5l196 0c3,0 5,2 5,5 0,3 -2,5 -5,5z"/>
     </g>
     <g id="_312770280">
      <path class="fil0" d="M114 308c-1,0 -3,0 -4,-1 -2,-2 -2,-6 0,-8l44 -43 -44 -43c-2,-2 -2,-6 0,-8 2,-2 5,-2 7,0l47 47c2,2 2,6 0,8l-47 47c-1,1 -2,1 -3,1z"/>
     </g>
     <g id="_312770112">
      <path class="fil0" d="M71 293c-1,0 -2,-1 -3,-2 -2,-2 -2,-5 0,-7l28 -28 -28 -28c-2,-2 -2,-5 0,-7 2,-2 5,-2 7,0l31 31c1,1 2,3 2,4 0,1 -1,3 -2,4l-31 31c-1,1 -2,2 -4,2z"/>
     </g>
     <g id="_312769848">
      <path class="fil0" d="M26 282c-1,0 -2,-1 -3,-2 -2,-2 -2,-5 0,-7l17 -17 -17 -17c-2,-2 -2,-5 0,-7 2,-2 5,-2 7,0l21 20c2,2 2,6 0,8l-21 20c-1,1 -2,2 -4,2z"/>
     </g>
    </g>
    <g id="_312769920">
     <path class="fil0" d="M295 222c-1,0 -3,0 -4,-1 -2,-2 -2,-6 0,-8l45 -45c2,-2 6,-2 8,0 2,2 2,6 0,8l-45 45c-1,1 -3,1 -4,1z"/>
    </g>
    <g id="_312769824">
     <path class="fil0" d="M340 345c-1,0 -3,0 -4,-1l-45 -45c-2,-2 -2,-6 0,-8 2,-2 6,-2 8,0l45 45c2,2 2,6 0,8 -1,1 -3,1 -4,1z"/>
    </g>
    <g id="_312769464">
     <path class="fil0" d="M172 345c-1,0 -3,0 -4,-1 -2,-2 -2,-6 0,-8l45 -45c2,-2 6,-2 8,0 2,2 2,6 0,8l-45 45c-1,1 -3,1 -4,1z"/>
    </g>
    <g id="_312768264">
     <path class="fil0" d="M217 222c-1,0 -3,0 -4,-1l-45 -45c-2,-2 -2,-6 0,-8 2,-2 6,-2 8,0l45 45c2,2 2,6 0,8 -1,1 -3,1 -4,1z"/>
    </g>
   </g>
  </g>
 </g>
</svg>
