<?xml version="1.0" encoding="UTF-8"?>
<!DOCTYPE svg PUBLIC "-//W3C//DTD SVG 1.1//EN" "http://www.w3.org/Graphics/SVG/1.1/DTD/svg11.dtd">
<!-- Creator: CorelDRAW -->
<svg xmlns="http://www.w3.org/2000/svg" xml:space="preserve" width="512px" height="512px" version="1.1" style="shape-rendering:geometricPrecision; text-rendering:geometricPrecision; image-rendering:optimizeQuality; fill-rule:evenodd; clip-rule:evenodd"
viewBox="0 0 512 512"
 xmlns:xlink="http://www.w3.org/1999/xlink">
 <defs>
  <style type="text/css">
   <![CDATA[
    .fil0 {fill:black}
   ]]>
  </style>
 </defs>
 <g id="Layer_x0020_1">
  <metadata id="CorelCorpID_0Corel-Layer"/>
  <g id="_180224760">
   <g>
    <g id="_180224856">
     <path class="fil0" d="M349 256l-186 0c0,0 -1,0 -1,0 -21,-6 -35,-23 -36,-44 0,-17 10,-32 27,-39 3,-14 14,-35 40,-35 1,0 3,0 4,0 10,-24 32,-39 59,-39 27,0 49,15 59,39 1,0 3,0 4,0 26,0 37,21 40,35 17,7 27,22 27,39 -1,21 -15,38 -36,44 0,0 -1,0 -1,0zm-185 -10l184 0c16,-5 27,-18 28,-34 0,-11 -6,-25 -23,-31 -2,0 -3,-2 -3,-4 0,-1 -5,-29 -31,-29 -2,0 -4,0 -7,0 -2,1 -5,-1 -5,-3 -8,-22 -27,-35 -51,-35 -24,0 -43,13 -51,35 0,2 -3,4 -5,3 -3,0 -5,0 -7,0 -26,0 -31,28 -31,29 0,2 -1,4 -3,4 -17,6 -23,20 -23,31 1,16 12,29 28,34z"/>
    </g>
    <g id="_180225768">
     <path class="fil0" d="M232 348c-1,0 -2,-1 -3,-1 -2,-1 -3,-4 -2,-6l16 -54 -25 0c-2,0 -3,-1 -4,-2 -1,-1 -1,-3 -1,-5l12 -31c1,-3 4,-4 7,-3 2,1 4,4 3,7l-10 24 25 0c1,0 3,1 4,2 1,1 1,3 1,5l-11 35 39 -47 -25 0c-1,0 -3,-1 -4,-3 -1,-1 -1,-3 0,-4l6 -16c1,-3 4,-4 7,-3 2,1 4,4 3,7l-4 8 28 0c2,0 4,2 5,3 1,2 0,4 -1,6l-62 76c-1,1 -3,2 -4,2z"/>
    </g>
    <g id="_180225816">
     <path class="fil0" d="M475 256l-186 0c-2,0 -5,-2 -5,-5 0,-3 3,-5 5,-5l185 0c17,-5 27,-18 28,-34 0,-11 -6,-25 -23,-31 -2,0 -3,-2 -3,-4 0,0 -3,-16 -14,-24 -7,-5 -14,-6 -24,-5 -2,1 -4,-1 -5,-3 -7,-22 -27,-35 -51,-35 -23,0 -43,13 -50,35 -1,3 -4,4 -7,3 -3,-1 -4,-4 -3,-6 8,-26 32,-43 60,-43 0,0 0,0 0,0 27,0 49,15 59,39 10,-1 19,1 27,6 11,9 16,23 17,29 17,7 27,22 27,39 -1,21 -15,38 -36,44 0,0 -1,0 -1,0z"/>
    </g>
    <g id="_180225984">
     <path class="fil0" d="M223 256l-186 0c0,0 -1,0 -1,0 -21,-6 -35,-23 -36,-44 0,-17 10,-32 27,-39 1,-6 6,-20 17,-29 8,-5 17,-7 27,-6 10,-24 32,-39 59,-39 28,0 52,17 60,43 1,2 0,5 -3,6 -3,1 -6,0 -7,-3 -7,-22 -27,-35 -50,-35 -24,0 -44,13 -51,35 -1,2 -3,4 -5,3 -10,-1 -17,0 -24,5 -11,8 -14,24 -14,24 0,2 -1,4 -3,4 -17,6 -23,20 -23,31 1,16 11,29 28,34l185 0c2,0 5,2 5,5 0,3 -3,5 -5,5z"/>
    </g>
    <g>
     <g>
      <g id="_180226152">
       <path class="fil0" d="M407 356c-15,0 -27,-11 -27,-25 0,-6 7,-20 19,-43 2,-3 3,-5 4,-7 0,-1 2,-2 4,-2 2,0 4,1 5,2 1,2 2,5 4,8 11,23 17,36 17,42 0,14 -12,25 -26,25zm0 -61c-5,10 -16,31 -16,36 0,8 7,14 16,14 9,0 16,-6 16,-14 0,-4 -11,-26 -16,-36z"/>
      </g>
      <g id="_180226224">
       <path class="fil0" d="M466 413c-14,0 -26,-11 -26,-25 0,-6 7,-20 19,-43 1,-3 2,-5 3,-7 1,-1 3,-2 5,-2 0,0 0,0 0,0 2,0 4,1 4,2 1,2 3,5 4,8 12,23 18,36 18,42 0,14 -12,25 -27,25zm1 -61c-5,10 -17,31 -17,36 0,8 7,14 16,14 9,0 17,-6 17,-14 -1,-4 -12,-26 -16,-36z"/>
      </g>
      <g id="_180224784">
       <path class="fil0" d="M347 413c-14,0 -26,-11 -26,-25 0,-6 6,-20 18,-43 2,-3 3,-5 4,-7 1,-1 3,-2 5,-2 0,0 0,0 0,0 2,0 3,1 4,2 1,2 2,5 4,8 11,23 18,36 18,42 0,7 -3,13 -8,18 -5,4 -12,7 -19,7zm0 -61c-5,10 -16,31 -16,36 0,8 7,14 16,14 9,0 16,-6 16,-14 0,-4 -11,-26 -16,-36z"/>
      </g>
     </g>
     <g>
      <g id="_180224256">
       <path class="fil0" d="M105 356c-14,0 -26,-11 -26,-25 0,-6 6,-20 19,-43 1,-3 2,-5 3,-7 1,-1 3,-2 5,-2 2,0 3,1 4,2 1,2 2,5 4,8 12,23 18,36 18,42 0,14 -12,25 -27,25zm0 -61c-5,10 -16,31 -16,36 0,8 7,14 16,14 9,0 16,-6 16,-14 0,-4 -11,-26 -16,-36z"/>
      </g>
      <g id="_180224136">
       <path class="fil0" d="M165 413c-15,0 -27,-11 -27,-25 0,-6 7,-20 19,-43 2,-3 3,-5 4,-7 1,-1 2,-2 4,-2 2,0 4,1 5,2 1,2 2,5 4,8 11,23 17,36 17,42 0,14 -12,25 -26,25zm0 -61c-5,10 -16,31 -16,36 0,8 7,14 16,14 9,0 16,-6 16,-14 0,-4 -11,-26 -16,-36z"/>
      </g>
      <g id="_180224712">
       <path class="fil0" d="M46 413c-15,0 -27,-11 -27,-25 0,-6 7,-20 19,-43 1,-3 3,-5 3,-7 1,-1 3,-2 5,-2 2,0 4,1 5,2 0,2 2,5 3,8 12,23 18,36 18,42 0,14 -12,25 -26,25zm0 -61c-5,10 -17,31 -17,36 0,8 8,14 17,14 9,0 16,-6 16,-14 0,-4 -11,-26 -16,-36z"/>
      </g>
     </g>
    </g>
   </g>
  </g>
 </g>
</svg>
